<svg width="206" height="52" viewBox="0 0 206 52" fill="none" xmlns="http://www.w3.org/2000/svg">
<rect width="206" height="52" rx="26" fill="#FA5000"/>
<path d="M35.6743 32.1089H32.8743L30.0143 28.0089C29.8343 28.0289 29.6543 28.0289 29.4743 28.0289H26.3143V32.1089H23.7143V18.1089H29.4743C33.1543 18.1089 35.4343 19.9889 35.4343 23.0889C35.4343 25.2089 34.3543 26.7689 32.4543 27.5089L35.6743 32.1089ZM32.8143 23.0889C32.8143 21.3289 31.6343 20.3089 29.3543 20.3089H26.3143V25.8889H29.3543C31.6343 25.8889 32.8143 24.8489 32.8143 23.0889ZM48.1432 26.8289C48.1432 27.0289 48.1232 27.3289 48.1032 27.5689H39.7232C40.0232 29.1289 41.3232 30.1289 43.1832 30.1289C44.3832 30.1289 45.3232 29.7489 46.0832 28.9689L47.4232 30.5089C46.4632 31.6489 44.9632 32.2489 43.1232 32.2489C39.5432 32.2489 37.2232 29.9489 37.2232 26.7689C37.2232 23.5889 39.5632 21.3089 42.7432 21.3089C45.8632 21.3089 48.1432 23.4889 48.1432 26.8289ZM42.7432 23.3089C41.1232 23.3089 39.9432 24.3489 39.7032 25.9089H45.7632C45.5632 24.3689 44.3832 23.3089 42.7432 23.3089ZM58.6046 21.4289H60.9846V35.9889H58.4846V30.8089C57.6246 31.7889 56.4246 32.2489 55.0646 32.2489C51.9446 32.2489 49.6646 30.0889 49.6646 26.7689C49.6646 23.4689 51.9446 21.3089 55.0646 21.3089C56.5246 21.3089 57.7646 21.8089 58.6046 22.8289V21.4289ZM55.3446 30.1089C57.1646 30.1089 58.5246 28.8089 58.5246 26.7689C58.5246 24.7289 57.1646 23.4289 55.3446 23.4289C53.5446 23.4289 52.1846 24.7289 52.1846 26.7689C52.1846 28.8089 53.5446 30.1089 55.3446 30.1089ZM72.0956 21.4289H74.5956V32.1089H72.2156V30.7489C71.4156 31.7289 70.1556 32.2489 68.7756 32.2489C66.0356 32.2489 64.1756 30.7489 64.1756 27.5289V21.4289H66.6756V27.1889C66.6756 29.1289 67.5956 30.0489 69.1756 30.0489C70.9156 30.0489 72.0956 28.9689 72.0956 26.8289V21.4289ZM87.9089 26.8289C87.9089 27.0289 87.8889 27.3289 87.8689 27.5689H79.4889C79.7889 29.1289 81.0889 30.1289 82.9489 30.1289C84.1489 30.1289 85.0889 29.7489 85.8489 28.9689L87.1889 30.5089C86.2289 31.6489 84.7289 32.2489 82.8889 32.2489C79.3089 32.2489 76.9889 29.9489 76.9889 26.7689C76.9889 23.5889 79.3289 21.3089 82.5089 21.3089C85.6289 21.3089 87.9089 23.4889 87.9089 26.8289ZM82.5089 23.3089C80.8889 23.3089 79.7089 24.3489 79.4689 25.9089H85.5289C85.3289 24.3689 84.1489 23.3089 82.5089 23.3089ZM93.6103 32.2489C91.8303 32.2489 90.0503 31.7289 89.0903 31.0489L90.0503 29.1489C90.9903 29.7689 92.4303 30.2089 93.7703 30.2089C95.3503 30.2089 96.0103 29.7689 96.0103 29.0289C96.0103 26.9889 89.4103 28.9089 89.4103 24.6489C89.4103 22.6289 91.2303 21.3089 94.1103 21.3089C95.5303 21.3089 97.1503 21.6489 98.1103 22.2289L97.1503 24.1289C96.1303 23.5289 95.1103 23.3289 94.0903 23.3289C92.5703 23.3289 91.8503 23.8289 91.8503 24.5289C91.8503 26.6889 98.4503 24.7689 98.4503 28.9489C98.4503 30.9489 96.6103 32.2489 93.6103 32.2489ZM106.323 29.7489L107.023 31.5289C106.423 32.0089 105.523 32.2489 104.623 32.2489C102.283 32.2489 100.943 31.0089 100.943 28.6489V23.5089H99.1832V21.5089H100.943V19.0689H103.443V21.5089H106.303V23.5089H103.443V28.5889C103.443 29.6289 103.963 30.1889 104.923 30.1889C105.443 30.1889 105.943 30.0489 106.323 29.7489ZM125.327 32.1089L123.927 28.8689H116.927L115.547 32.1089H112.867L119.167 18.1089H121.727L128.047 32.1089H125.327ZM117.807 26.8289H123.067L120.427 20.7089L117.807 26.8289ZM134.39 32.2489C131.01 32.2489 128.61 29.9689 128.61 26.7689C128.61 23.5689 131.01 21.3089 134.39 21.3089C136.47 21.3089 138.13 22.1689 138.95 23.7889L137.03 24.9089C136.39 23.8889 135.43 23.4289 134.37 23.4289C132.53 23.4289 131.13 24.7089 131.13 26.7689C131.13 28.8489 132.53 30.1089 134.37 30.1089C135.43 30.1089 136.39 29.6489 137.03 28.6289L138.95 29.7489C138.13 31.3489 136.47 32.2489 134.39 32.2489ZM145.855 32.2489C142.475 32.2489 140.075 29.9689 140.075 26.7689C140.075 23.5689 142.475 21.3089 145.855 21.3089C147.935 21.3089 149.595 22.1689 150.415 23.7889L148.495 24.9089C147.855 23.8889 146.895 23.4289 145.835 23.4289C143.995 23.4289 142.595 24.7089 142.595 26.7689C142.595 28.8489 143.995 30.1089 145.835 30.1089C146.895 30.1089 147.855 29.6489 148.495 28.6289L150.415 29.7489C149.595 31.3489 147.935 32.2489 145.855 32.2489ZM162.46 26.8289C162.46 27.0289 162.44 27.3289 162.42 27.5689H154.04C154.34 29.1289 155.64 30.1289 157.5 30.1289C158.7 30.1289 159.64 29.7489 160.4 28.9689L161.74 30.5089C160.78 31.6489 159.28 32.2489 157.44 32.2489C153.86 32.2489 151.54 29.9489 151.54 26.7689C151.54 23.5889 153.88 21.3089 157.06 21.3089C160.18 21.3089 162.46 23.4889 162.46 26.8289ZM157.06 23.3089C155.44 23.3089 154.26 24.3489 154.02 25.9089H160.08C159.88 24.3689 158.7 23.3089 157.06 23.3089ZM168.161 32.2489C166.381 32.2489 164.601 31.7289 163.641 31.0489L164.601 29.1489C165.541 29.7689 166.981 30.2089 168.321 30.2089C169.901 30.2089 170.561 29.7689 170.561 29.0289C170.561 26.9889 163.961 28.9089 163.961 24.6489C163.961 22.6289 165.781 21.3089 168.661 21.3089C170.081 21.3089 171.701 21.6489 172.661 22.2289L171.701 24.1289C170.681 23.5289 169.661 23.3289 168.641 23.3289C167.121 23.3289 166.401 23.8289 166.401 24.5289C166.401 26.6889 173.001 24.7689 173.001 28.9489C173.001 30.9489 171.161 32.2489 168.161 32.2489ZM178.454 32.2489C176.674 32.2489 174.894 31.7289 173.934 31.0489L174.894 29.1489C175.834 29.7689 177.274 30.2089 178.614 30.2089C180.194 30.2089 180.854 29.7689 180.854 29.0289C180.854 26.9889 174.254 28.9089 174.254 24.6489C174.254 22.6289 176.074 21.3089 178.954 21.3089C180.374 21.3089 181.994 21.6489 182.954 22.2289L181.994 24.1289C180.974 23.5289 179.954 23.3289 178.934 23.3289C177.414 23.3289 176.694 23.8289 176.694 24.5289C176.694 26.6889 183.294 24.7689 183.294 28.9489C183.294 30.9489 181.454 32.2489 178.454 32.2489Z" fill="white"/>
</svg>
